<mxfile host="www.draw.io" modified="2020-02-28T09:24:45.176Z" agent="Mozilla/5.0 (X11; Linux x86_64) AppleWebKit/537.36 (KHTML, like Gecko) Chrome/80.0.3987.116 Safari/537.36" etag="JD5C3E4wwielRfQyeb3Q" version="12.7.9" type="github">
  <diagram name="Page-1" id="13e1069c-82ec-6db2-03f1-153e76fe0fe0">
    <mxGraphModel dx="2508" dy="879" grid="1" gridSize="10" guides="1" tooltips="1" connect="1" arrows="1" fold="1" page="1" pageScale="1" pageWidth="1100" pageHeight="850" background="#ffffff" math="0" shadow="0">
      <root>
        <mxCell id="0" />
        <mxCell id="1" parent="0" />
        <mxCell id="FZp41WRo9U6eYTtbwBS2-1" value="" style="endArrow=classic;html=1;" parent="1" edge="1">
          <mxGeometry width="50" height="50" relative="1" as="geometry">
            <mxPoint x="140" y="180" as="sourcePoint" />
            <mxPoint x="940" y="180" as="targetPoint" />
            <Array as="points">
              <mxPoint x="410.5" y="180" />
            </Array>
          </mxGeometry>
        </mxCell>
        <mxCell id="FZp41WRo9U6eYTtbwBS2-2" value="Function call(1) (cmd, parameters, ..)" style="text;html=1;align=center;verticalAlign=middle;resizable=0;points=[];autosize=1;fontSize=13;" parent="1" vertex="1">
          <mxGeometry x="350" y="150" width="230" height="20" as="geometry" />
        </mxCell>
        <mxCell id="FZp41WRo9U6eYTtbwBS2-5" value="" style="endArrow=classic;html=1;jumpSize=4;endSize=7;strokeWidth=1;" parent="1" edge="1">
          <mxGeometry width="50" height="50" relative="1" as="geometry">
            <mxPoint x="660" y="360" as="sourcePoint" />
            <mxPoint x="-10" y="360" as="targetPoint" />
          </mxGeometry>
        </mxCell>
        <mxCell id="FZp41WRo9U6eYTtbwBS2-6" value="Function response(1) (error code, data, ...)" style="text;html=1;align=center;verticalAlign=middle;resizable=0;points=[];autosize=1;fontSize=13;" parent="1" vertex="1">
          <mxGeometry x="353" y="330" width="260" height="20" as="geometry" />
        </mxCell>
        <mxCell id="FZp41WRo9U6eYTtbwBS2-9" value="" style="endArrow=classic;html=1;" parent="1" edge="1">
          <mxGeometry width="50" height="50" relative="1" as="geometry">
            <mxPoint x="660" y="650" as="sourcePoint" />
            <mxPoint x="-10" y="650" as="targetPoint" />
          </mxGeometry>
        </mxCell>
        <mxCell id="FZp41WRo9U6eYTtbwBS2-10" value="" style="endArrow=classic;html=1;" parent="1" edge="1">
          <mxGeometry width="50" height="50" relative="1" as="geometry">
            <mxPoint x="790" y="767" as="sourcePoint" />
            <mxPoint x="-10" y="767" as="targetPoint" />
          </mxGeometry>
        </mxCell>
        <mxCell id="FZp41WRo9U6eYTtbwBS2-13" value="" style="endArrow=classic;html=1;" parent="1" edge="1">
          <mxGeometry width="50" height="50" relative="1" as="geometry">
            <mxPoint x="660" y="877" as="sourcePoint" />
            <mxPoint x="-10" y="877" as="targetPoint" />
          </mxGeometry>
        </mxCell>
        <mxCell id="FZp41WRo9U6eYTtbwBS2-14" value="event(evt, data)" style="text;html=1;align=center;verticalAlign=middle;resizable=0;points=[];autosize=1;fontSize=13;" parent="1" vertex="1">
          <mxGeometry x="360" y="620" width="110" height="20" as="geometry" />
        </mxCell>
        <mxCell id="FZp41WRo9U6eYTtbwBS2-15" value="event(evt, data)" style="text;html=1;align=center;verticalAlign=middle;resizable=0;points=[];autosize=1;fontSize=13;" parent="1" vertex="1">
          <mxGeometry x="360" y="738" width="110" height="20" as="geometry" />
        </mxCell>
        <mxCell id="FZp41WRo9U6eYTtbwBS2-16" value="event(evt, data)" style="text;html=1;align=center;verticalAlign=middle;resizable=0;points=[];autosize=1;fontSize=13;" parent="1" vertex="1">
          <mxGeometry x="370" y="847" width="110" height="20" as="geometry" />
        </mxCell>
        <mxCell id="FZp41WRo9U6eYTtbwBS2-17" value="" style="endArrow=none;dashed=1;html=1;fontSize=13;entryX=0.5;entryY=1;entryDx=0;entryDy=0;" parent="1" source="sKiDmbjsrYq06C7JDy-H-31" target="FZp41WRo9U6eYTtbwBS2-21" edge="1">
          <mxGeometry width="50" height="50" relative="1" as="geometry">
            <mxPoint x="-10" y="770" as="sourcePoint" />
            <mxPoint x="109.5" y="240" as="targetPoint" />
          </mxGeometry>
        </mxCell>
        <mxCell id="ZVEdmqkBj1udmlxArRgm-3" style="edgeStyle=orthogonalEdgeStyle;rounded=0;orthogonalLoop=1;jettySize=auto;html=1;exitX=1;exitY=0.5;exitDx=0;exitDy=0;" edge="1" parent="1" source="FZp41WRo9U6eYTtbwBS2-8">
          <mxGeometry relative="1" as="geometry">
            <mxPoint x="130" y="444" as="targetPoint" />
          </mxGeometry>
        </mxCell>
        <mxCell id="FZp41WRo9U6eYTtbwBS2-8" value="os_signal_set(1)" style="rounded=0;whiteSpace=wrap;html=1;" parent="1" vertex="1">
          <mxGeometry x="-70" y="429" width="120" height="30" as="geometry" />
        </mxCell>
        <mxCell id="FZp41WRo9U6eYTtbwBS2-20" value="" style="endArrow=classic;html=1;fontSize=13;" parent="1" edge="1">
          <mxGeometry width="50" height="50" relative="1" as="geometry">
            <mxPoint y="610" as="sourcePoint" />
            <mxPoint x="280" y="610" as="targetPoint" />
            <Array as="points">
              <mxPoint x="-10" y="610" />
              <mxPoint y="610" />
              <mxPoint x="50" y="610" />
            </Array>
          </mxGeometry>
        </mxCell>
        <mxCell id="FZp41WRo9U6eYTtbwBS2-21" value="&lt;div&gt;Receive thread /&lt;/div&gt;&lt;div&gt;Receive IRQ&lt;br&gt;&lt;/div&gt;" style="rounded=1;whiteSpace=wrap;html=1;fontSize=13;" parent="1" vertex="1">
          <mxGeometry x="-70" y="100" width="120" height="60" as="geometry" />
        </mxCell>
        <mxCell id="FZp41WRo9U6eYTtbwBS2-25" value="Return data" style="text;html=1;align=center;verticalAlign=middle;resizable=0;points=[];autosize=1;fontSize=13;" parent="1" vertex="1">
          <mxGeometry x="20" y="580" width="80" height="20" as="geometry" />
        </mxCell>
        <mxCell id="FZp41WRo9U6eYTtbwBS2-26" value="" style="endArrow=classic;html=1;fontSize=13;" parent="1" edge="1">
          <mxGeometry width="50" height="50" relative="1" as="geometry">
            <mxPoint x="-10" y="738" as="sourcePoint" />
            <mxPoint x="130" y="738" as="targetPoint" />
          </mxGeometry>
        </mxCell>
        <mxCell id="FZp41WRo9U6eYTtbwBS2-27" value="" style="endArrow=classic;html=1;fontSize=13;" parent="1" edge="1">
          <mxGeometry width="50" height="50" relative="1" as="geometry">
            <mxPoint x="-10" y="847" as="sourcePoint" />
            <mxPoint x="280" y="847" as="targetPoint" />
          </mxGeometry>
        </mxCell>
        <mxCell id="FZp41WRo9U6eYTtbwBS2-29" value="" style="endArrow=classic;html=1;fontSize=13;" parent="1" edge="1">
          <mxGeometry width="50" height="50" relative="1" as="geometry">
            <mxPoint x="-10" y="949.5" as="sourcePoint" />
            <mxPoint x="130" y="950" as="targetPoint" />
          </mxGeometry>
        </mxCell>
        <mxCell id="FZp41WRo9U6eYTtbwBS2-30" value="event data" style="text;html=1;align=center;verticalAlign=middle;resizable=0;points=[];autosize=1;fontSize=13;" parent="1" vertex="1">
          <mxGeometry x="20" y="710" width="80" height="20" as="geometry" />
        </mxCell>
        <mxCell id="FZp41WRo9U6eYTtbwBS2-31" value="event data" style="text;html=1;align=center;verticalAlign=middle;resizable=0;points=[];autosize=1;fontSize=13;" parent="1" vertex="1">
          <mxGeometry x="20" y="820" width="80" height="20" as="geometry" />
        </mxCell>
        <mxCell id="FZp41WRo9U6eYTtbwBS2-32" value="event data" style="text;html=1;align=center;verticalAlign=middle;resizable=0;points=[];autosize=1;fontSize=13;" parent="1" vertex="1">
          <mxGeometry x="20" y="920" width="80" height="20" as="geometry" />
        </mxCell>
        <mxCell id="sKiDmbjsrYq06C7JDy-H-16" value="" style="endArrow=none;dashed=1;html=1;entryX=0.5;entryY=1;entryDx=0;entryDy=0;" parent="1" target="sKiDmbjsrYq06C7JDy-H-20" edge="1">
          <mxGeometry width="50" height="50" relative="1" as="geometry">
            <mxPoint x="795" y="970" as="sourcePoint" />
            <mxPoint x="799.5" y="160" as="targetPoint" />
          </mxGeometry>
        </mxCell>
        <mxCell id="sKiDmbjsrYq06C7JDy-H-17" value="" style="endArrow=none;dashed=1;html=1;" parent="1" target="sKiDmbjsrYq06C7JDy-H-18" edge="1">
          <mxGeometry width="50" height="50" relative="1" as="geometry">
            <mxPoint x="665" y="970" as="sourcePoint" />
            <mxPoint x="665" y="151" as="targetPoint" />
          </mxGeometry>
        </mxCell>
        <mxCell id="sKiDmbjsrYq06C7JDy-H-18" value="rp ser instance(1)" style="rounded=1;whiteSpace=wrap;html=1;" parent="1" vertex="1">
          <mxGeometry x="610" y="100" width="110" height="20" as="geometry" />
        </mxCell>
        <mxCell id="sKiDmbjsrYq06C7JDy-H-19" style="edgeStyle=orthogonalEdgeStyle;rounded=0;orthogonalLoop=1;jettySize=auto;html=1;exitX=0.5;exitY=1;exitDx=0;exitDy=0;" parent="1" source="sKiDmbjsrYq06C7JDy-H-18" target="sKiDmbjsrYq06C7JDy-H-18" edge="1">
          <mxGeometry relative="1" as="geometry" />
        </mxCell>
        <mxCell id="sKiDmbjsrYq06C7JDy-H-20" value="rp ser instance(n)" style="rounded=1;whiteSpace=wrap;html=1;" parent="1" vertex="1">
          <mxGeometry x="740" y="100" width="110" height="20" as="geometry" />
        </mxCell>
        <mxCell id="sKiDmbjsrYq06C7JDy-H-24" value="Function call(2) (cmd, parameters, ..)" style="text;html=1;align=center;verticalAlign=middle;resizable=0;points=[];autosize=1;fontSize=13;" parent="1" vertex="1">
          <mxGeometry x="350" y="260" width="230" height="20" as="geometry" />
        </mxCell>
        <mxCell id="sKiDmbjsrYq06C7JDy-H-25" value="" style="endArrow=classic;html=1;" parent="1" edge="1">
          <mxGeometry width="50" height="50" relative="1" as="geometry">
            <mxPoint x="280" y="290" as="sourcePoint" />
            <mxPoint x="940" y="290" as="targetPoint" />
            <Array as="points">
              <mxPoint x="410.5" y="290" />
            </Array>
          </mxGeometry>
        </mxCell>
        <mxCell id="sKiDmbjsrYq06C7JDy-H-29" value="" style="endArrow=classic;html=1;" parent="1" edge="1">
          <mxGeometry width="50" height="50" relative="1" as="geometry">
            <mxPoint x="790" y="530" as="sourcePoint" />
            <mxPoint x="-10" y="530" as="targetPoint" />
          </mxGeometry>
        </mxCell>
        <mxCell id="sKiDmbjsrYq06C7JDy-H-30" value="Function response(2) (error code, data, ...)" style="text;html=1;align=center;verticalAlign=middle;resizable=0;points=[];autosize=1;fontSize=13;" parent="1" vertex="1">
          <mxGeometry x="353" y="500" width="260" height="20" as="geometry" />
        </mxCell>
        <mxCell id="FZp41WRo9U6eYTtbwBS2-4" value="Function call" style="rounded=0;whiteSpace=wrap;html=1;" parent="1" vertex="1">
          <mxGeometry x="600" y="230" width="120" height="30" as="geometry" />
        </mxCell>
        <mxCell id="sKiDmbjsrYq06C7JDy-H-32" value="Function call" style="rounded=0;whiteSpace=wrap;html=1;" parent="1" vertex="1">
          <mxGeometry x="740" y="356" width="120" height="30" as="geometry" />
        </mxCell>
        <mxCell id="sKiDmbjsrYq06C7JDy-H-33" value="Remote core" style="rounded=1;whiteSpace=wrap;html=1;strokeColor=#000000;" parent="1" vertex="1">
          <mxGeometry x="730" y="20" width="130" height="40" as="geometry" />
        </mxCell>
        <mxCell id="sKiDmbjsrYq06C7JDy-H-34" value="Application core" style="rounded=1;whiteSpace=wrap;html=1;strokeColor=#000000;" parent="1" vertex="1">
          <mxGeometry x="70" y="20" width="130" height="40" as="geometry" />
        </mxCell>
        <mxCell id="sKiDmbjsrYq06C7JDy-H-35" value="rp ser instance(1)" style="rounded=1;whiteSpace=wrap;html=1;" parent="1" vertex="1">
          <mxGeometry x="80" y="100" width="110" height="20" as="geometry" />
        </mxCell>
        <mxCell id="sKiDmbjsrYq06C7JDy-H-36" value="rp ser instance(n)" style="rounded=1;whiteSpace=wrap;html=1;" parent="1" vertex="1">
          <mxGeometry x="225.5" y="100" width="110" height="20" as="geometry" />
        </mxCell>
        <mxCell id="sKiDmbjsrYq06C7JDy-H-31" value="os_signal_set(n)" style="rounded=0;whiteSpace=wrap;html=1;" parent="1" vertex="1">
          <mxGeometry x="-70" y="540" width="120" height="30" as="geometry" />
        </mxCell>
        <mxCell id="sKiDmbjsrYq06C7JDy-H-37" value="" style="endArrow=none;dashed=1;html=1;fontSize=13;entryX=0.5;entryY=1;entryDx=0;entryDy=0;" parent="1" target="sKiDmbjsrYq06C7JDy-H-31" edge="1">
          <mxGeometry width="50" height="50" relative="1" as="geometry">
            <mxPoint x="-10" y="970" as="sourcePoint" />
            <mxPoint x="-10" y="230" as="targetPoint" />
          </mxGeometry>
        </mxCell>
        <mxCell id="sKiDmbjsrYq06C7JDy-H-38" value="" style="endArrow=none;dashed=1;html=1;entryX=0.5;entryY=1;entryDx=0;entryDy=0;" parent="1" target="sKiDmbjsrYq06C7JDy-H-35" edge="1">
          <mxGeometry width="50" height="50" relative="1" as="geometry">
            <mxPoint x="130" y="970" as="sourcePoint" />
            <mxPoint x="150" y="210" as="targetPoint" />
          </mxGeometry>
        </mxCell>
        <mxCell id="sKiDmbjsrYq06C7JDy-H-39" value="" style="endArrow=none;dashed=1;html=1;entryX=0.5;entryY=1;entryDx=0;entryDy=0;" parent="1" target="sKiDmbjsrYq06C7JDy-H-36" edge="1">
          <mxGeometry width="50" height="50" relative="1" as="geometry">
            <mxPoint x="281" y="970" as="sourcePoint" />
            <mxPoint x="280" y="150" as="targetPoint" />
          </mxGeometry>
        </mxCell>
        <mxCell id="FZp41WRo9U6eYTtbwBS2-3" value="os_signal_wait(1)" style="rounded=0;whiteSpace=wrap;html=1;" parent="1" vertex="1">
          <mxGeometry x="80" y="210" width="110" height="30" as="geometry" />
        </mxCell>
        <mxCell id="ZVEdmqkBj1udmlxArRgm-2" style="edgeStyle=orthogonalEdgeStyle;rounded=0;orthogonalLoop=1;jettySize=auto;html=1;exitX=1;exitY=0.5;exitDx=0;exitDy=0;" edge="1" parent="1" source="FZp41WRo9U6eYTtbwBS2-7">
          <mxGeometry relative="1" as="geometry">
            <mxPoint x="130" y="401" as="targetPoint" />
          </mxGeometry>
        </mxCell>
        <mxCell id="FZp41WRo9U6eYTtbwBS2-7" value="Response parse" style="rounded=0;whiteSpace=wrap;html=1;" parent="1" vertex="1">
          <mxGeometry x="-70" y="386" width="120" height="30" as="geometry" />
        </mxCell>
        <mxCell id="sKiDmbjsrYq06C7JDy-H-46" value="Return data" style="text;html=1;align=center;verticalAlign=middle;resizable=0;points=[];autosize=1;fontSize=13;" parent="1" vertex="1">
          <mxGeometry x="50" y="380" width="80" height="20" as="geometry" />
        </mxCell>
        <mxCell id="sKiDmbjsrYq06C7JDy-H-49" value="os_signal_wait(n)" style="rounded=0;whiteSpace=wrap;html=1;" parent="1" vertex="1">
          <mxGeometry x="225.5" y="300" width="110" height="30" as="geometry" />
        </mxCell>
        <mxCell id="sKiDmbjsrYq06C7JDy-H-50" value="&lt;div&gt;Receive thread /&lt;/div&gt;&lt;div&gt;Receive IRQ&lt;br&gt;&lt;/div&gt;" style="rounded=1;whiteSpace=wrap;html=1;fontSize=13;" parent="1" vertex="1">
          <mxGeometry x="880" y="100" width="120" height="60" as="geometry" />
        </mxCell>
        <mxCell id="sKiDmbjsrYq06C7JDy-H-51" value="" style="endArrow=none;dashed=1;html=1;fontSize=13;entryX=0.5;entryY=1;entryDx=0;entryDy=0;" parent="1" target="sKiDmbjsrYq06C7JDy-H-50" edge="1">
          <mxGeometry width="50" height="50" relative="1" as="geometry">
            <mxPoint x="940" y="970" as="sourcePoint" />
            <mxPoint x="939.5" y="210" as="targetPoint" />
          </mxGeometry>
        </mxCell>
        <mxCell id="sKiDmbjsrYq06C7JDy-H-52" value="" style="endArrow=classic;html=1;" parent="1" edge="1">
          <mxGeometry width="50" height="50" relative="1" as="geometry">
            <mxPoint x="940" y="220" as="sourcePoint" />
            <mxPoint x="670" y="220" as="targetPoint" />
          </mxGeometry>
        </mxCell>
        <mxCell id="sKiDmbjsrYq06C7JDy-H-54" value="" style="endArrow=classic;html=1;" parent="1" edge="1">
          <mxGeometry width="50" height="50" relative="1" as="geometry">
            <mxPoint x="940" y="326" as="sourcePoint" />
            <mxPoint x="800" y="326" as="targetPoint" />
          </mxGeometry>
        </mxCell>
        <mxCell id="sKiDmbjsrYq06C7JDy-H-58" value="Function data" style="text;html=1;strokeColor=none;fillColor=none;align=center;verticalAlign=middle;whiteSpace=wrap;rounded=0;" parent="1" vertex="1">
          <mxGeometry x="830" y="190" width="80" height="20" as="geometry" />
        </mxCell>
        <mxCell id="sKiDmbjsrYq06C7JDy-H-61" value="Function data" style="text;html=1;strokeColor=none;fillColor=none;align=center;verticalAlign=middle;whiteSpace=wrap;rounded=0;" parent="1" vertex="1">
          <mxGeometry x="830" y="300" width="80" height="20" as="geometry" />
        </mxCell>
        <mxCell id="sKiDmbjsrYq06C7JDy-H-64" value="" style="endArrow=none;dashed=1;html=1;entryX=0.5;entryY=0;entryDx=0;entryDy=0;" parent="1" target="sKiDmbjsrYq06C7JDy-H-36" edge="1">
          <mxGeometry width="50" height="50" relative="1" as="geometry">
            <mxPoint x="-10" y="100" as="sourcePoint" />
            <mxPoint x="40" y="50" as="targetPoint" />
            <Array as="points">
              <mxPoint x="-10" y="80" />
              <mxPoint x="140" y="80" />
              <mxPoint x="281" y="80" />
            </Array>
          </mxGeometry>
        </mxCell>
        <mxCell id="sKiDmbjsrYq06C7JDy-H-65" value="" style="endArrow=none;dashed=1;html=1;exitX=0.5;exitY=0;exitDx=0;exitDy=0;entryX=0.5;entryY=1;entryDx=0;entryDy=0;" parent="1" source="sKiDmbjsrYq06C7JDy-H-35" target="sKiDmbjsrYq06C7JDy-H-34" edge="1">
          <mxGeometry width="50" height="50" relative="1" as="geometry">
            <mxPoint x="-10" y="80" as="sourcePoint" />
            <mxPoint x="40" y="30" as="targetPoint" />
          </mxGeometry>
        </mxCell>
        <mxCell id="sKiDmbjsrYq06C7JDy-H-66" value="" style="endArrow=none;dashed=1;html=1;exitX=0.5;exitY=0;exitDx=0;exitDy=0;entryX=0.5;entryY=0;entryDx=0;entryDy=0;" parent="1" source="sKiDmbjsrYq06C7JDy-H-18" target="sKiDmbjsrYq06C7JDy-H-50" edge="1">
          <mxGeometry width="50" height="50" relative="1" as="geometry">
            <mxPoint x="650" y="100" as="sourcePoint" />
            <mxPoint x="700" y="50" as="targetPoint" />
            <Array as="points">
              <mxPoint x="665" y="80" />
              <mxPoint x="800" y="80" />
              <mxPoint x="940" y="80" />
            </Array>
          </mxGeometry>
        </mxCell>
        <mxCell id="sKiDmbjsrYq06C7JDy-H-67" value="" style="endArrow=none;dashed=1;html=1;exitX=0.5;exitY=0;exitDx=0;exitDy=0;entryX=0.5;entryY=1;entryDx=0;entryDy=0;" parent="1" source="sKiDmbjsrYq06C7JDy-H-20" target="sKiDmbjsrYq06C7JDy-H-33" edge="1">
          <mxGeometry width="50" height="50" relative="1" as="geometry">
            <mxPoint x="940" y="80" as="sourcePoint" />
            <mxPoint x="990" y="30" as="targetPoint" />
          </mxGeometry>
        </mxCell>
        <mxCell id="ZVEdmqkBj1udmlxArRgm-4" value="Event parse" style="rounded=0;whiteSpace=wrap;html=1;" vertex="1" parent="1">
          <mxGeometry x="-70" y="670" width="120" height="30" as="geometry" />
        </mxCell>
        <mxCell id="ZVEdmqkBj1udmlxArRgm-5" value="Event parse" style="rounded=0;whiteSpace=wrap;html=1;" vertex="1" parent="1">
          <mxGeometry x="-70" y="780" width="120" height="30" as="geometry" />
        </mxCell>
        <mxCell id="ZVEdmqkBj1udmlxArRgm-6" value="Event parse" style="rounded=0;whiteSpace=wrap;html=1;" vertex="1" parent="1">
          <mxGeometry x="-70" y="890" width="120" height="30" as="geometry" />
        </mxCell>
      </root>
    </mxGraphModel>
  </diagram>
</mxfile>
